G04 EAGLE Gerber RS-274X export*
G75*
%MOMM*%
%FSLAX34Y34*%
%LPD*%
%IN*%
%IPPOS*%
%AMOC8*
5,1,8,0,0,1.08239X$1,22.5*%
G01*
%ADD10C,0.254000*%


D10*
X1270Y1270D02*
X852170Y1270D01*
X852170Y819150D01*
X1270Y819150D01*
X1270Y1270D01*
X619290Y778087D02*
X619222Y777304D01*
X619085Y776530D01*
X618882Y775771D01*
X618613Y775033D01*
X618281Y774320D01*
X617888Y773640D01*
X617437Y772996D01*
X616932Y772394D01*
X616376Y771838D01*
X615774Y771333D01*
X615130Y770882D01*
X614450Y770489D01*
X613737Y770157D01*
X612999Y769888D01*
X612240Y769685D01*
X611466Y769549D01*
X610683Y769480D01*
X609897Y769480D01*
X609114Y769549D01*
X608340Y769685D01*
X607581Y769888D01*
X606843Y770157D01*
X606130Y770489D01*
X605450Y770882D01*
X604806Y771333D01*
X604204Y771838D01*
X603648Y772394D01*
X603143Y772996D01*
X602692Y773640D01*
X602299Y774320D01*
X601967Y775033D01*
X601698Y775771D01*
X601495Y776530D01*
X601359Y777304D01*
X601290Y778087D01*
X601290Y778873D01*
X601359Y779656D01*
X601495Y780430D01*
X601698Y781189D01*
X601967Y781927D01*
X602299Y782640D01*
X602692Y783320D01*
X603143Y783964D01*
X603648Y784566D01*
X604204Y785122D01*
X604806Y785627D01*
X605450Y786078D01*
X606130Y786471D01*
X606843Y786803D01*
X607581Y787072D01*
X608340Y787275D01*
X609114Y787412D01*
X609897Y787480D01*
X610683Y787480D01*
X611466Y787412D01*
X612240Y787275D01*
X612999Y787072D01*
X613737Y786803D01*
X614450Y786471D01*
X615130Y786078D01*
X615774Y785627D01*
X616376Y785122D01*
X616932Y784566D01*
X617437Y783964D01*
X617888Y783320D01*
X618281Y782640D01*
X618613Y781927D01*
X618882Y781189D01*
X619085Y780430D01*
X619222Y779656D01*
X619290Y778873D01*
X619290Y778087D01*
X673790Y778087D02*
X673722Y777304D01*
X673585Y776530D01*
X673382Y775771D01*
X673113Y775033D01*
X672781Y774320D01*
X672388Y773640D01*
X671937Y772996D01*
X671432Y772394D01*
X670876Y771838D01*
X670274Y771333D01*
X669630Y770882D01*
X668950Y770489D01*
X668237Y770157D01*
X667499Y769888D01*
X666740Y769685D01*
X665966Y769549D01*
X665183Y769480D01*
X664397Y769480D01*
X663614Y769549D01*
X662840Y769685D01*
X662081Y769888D01*
X661343Y770157D01*
X660630Y770489D01*
X659950Y770882D01*
X659306Y771333D01*
X658704Y771838D01*
X658148Y772394D01*
X657643Y772996D01*
X657192Y773640D01*
X656799Y774320D01*
X656467Y775033D01*
X656198Y775771D01*
X655995Y776530D01*
X655859Y777304D01*
X655790Y778087D01*
X655790Y778873D01*
X655859Y779656D01*
X655995Y780430D01*
X656198Y781189D01*
X656467Y781927D01*
X656799Y782640D01*
X657192Y783320D01*
X657643Y783964D01*
X658148Y784566D01*
X658704Y785122D01*
X659306Y785627D01*
X659950Y786078D01*
X660630Y786471D01*
X661343Y786803D01*
X662081Y787072D01*
X662840Y787275D01*
X663614Y787412D01*
X664397Y787480D01*
X665183Y787480D01*
X665966Y787412D01*
X666740Y787275D01*
X667499Y787072D01*
X668237Y786803D01*
X668950Y786471D01*
X669630Y786078D01*
X670274Y785627D01*
X670876Y785122D01*
X671432Y784566D01*
X671937Y783964D01*
X672388Y783320D01*
X672781Y782640D01*
X673113Y781927D01*
X673382Y781189D01*
X673585Y780430D01*
X673722Y779656D01*
X673790Y778873D01*
X673790Y778087D01*
X620790Y747812D02*
X620718Y747078D01*
X620574Y746355D01*
X620360Y745650D01*
X620078Y744969D01*
X619731Y744320D01*
X619321Y743707D01*
X618854Y743137D01*
X618333Y742616D01*
X617763Y742149D01*
X617150Y741739D01*
X616501Y741392D01*
X615820Y741110D01*
X615115Y740896D01*
X614392Y740752D01*
X613658Y740680D01*
X612922Y740680D01*
X612188Y740752D01*
X611465Y740896D01*
X610760Y741110D01*
X610079Y741392D01*
X609430Y741739D01*
X608817Y742149D01*
X608247Y742616D01*
X607726Y743137D01*
X607259Y743707D01*
X606849Y744320D01*
X606502Y744969D01*
X606220Y745650D01*
X606006Y746355D01*
X605862Y747078D01*
X605790Y747812D01*
X605790Y748548D01*
X605862Y749282D01*
X606006Y750005D01*
X606220Y750710D01*
X606502Y751391D01*
X606849Y752040D01*
X607259Y752653D01*
X607726Y753223D01*
X608247Y753744D01*
X608817Y754211D01*
X609430Y754621D01*
X610079Y754968D01*
X610760Y755250D01*
X611465Y755464D01*
X612188Y755608D01*
X612922Y755680D01*
X613658Y755680D01*
X614392Y755608D01*
X615115Y755464D01*
X615820Y755250D01*
X616501Y754968D01*
X617150Y754621D01*
X617763Y754211D01*
X618333Y753744D01*
X618854Y753223D01*
X619321Y752653D01*
X619731Y752040D01*
X620078Y751391D01*
X620360Y750710D01*
X620574Y750005D01*
X620718Y749282D01*
X620790Y748548D01*
X620790Y747812D01*
X669290Y747812D02*
X669218Y747078D01*
X669074Y746355D01*
X668860Y745650D01*
X668578Y744969D01*
X668231Y744320D01*
X667821Y743707D01*
X667354Y743137D01*
X666833Y742616D01*
X666263Y742149D01*
X665650Y741739D01*
X665001Y741392D01*
X664320Y741110D01*
X663615Y740896D01*
X662892Y740752D01*
X662158Y740680D01*
X661422Y740680D01*
X660688Y740752D01*
X659965Y740896D01*
X659260Y741110D01*
X658579Y741392D01*
X657930Y741739D01*
X657317Y742149D01*
X656747Y742616D01*
X656226Y743137D01*
X655759Y743707D01*
X655349Y744320D01*
X655002Y744969D01*
X654720Y745650D01*
X654506Y746355D01*
X654362Y747078D01*
X654290Y747812D01*
X654290Y748548D01*
X654362Y749282D01*
X654506Y750005D01*
X654720Y750710D01*
X655002Y751391D01*
X655349Y752040D01*
X655759Y752653D01*
X656226Y753223D01*
X656747Y753744D01*
X657317Y754211D01*
X657930Y754621D01*
X658579Y754968D01*
X659260Y755250D01*
X659965Y755464D01*
X660688Y755608D01*
X661422Y755680D01*
X662158Y755680D01*
X662892Y755608D01*
X663615Y755464D01*
X664320Y755250D01*
X665001Y754968D01*
X665650Y754621D01*
X666263Y754211D01*
X666833Y753744D01*
X667354Y753223D01*
X667821Y752653D01*
X668231Y752040D01*
X668578Y751391D01*
X668860Y750710D01*
X669074Y750005D01*
X669218Y749282D01*
X669290Y748548D01*
X669290Y747812D01*
M02*
