G04 EAGLE Gerber RS-274X export*
G75*
%MOMM*%
%FSLAX34Y34*%
%LPD*%
%INSilkscreen Bottom*%
%IPPOS*%
%AMOC8*
5,1,8,0,0,1.08239X$1,22.5*%
G01*
%ADD10C,0.101600*%
%ADD11C,0.203200*%


D10*
X598104Y107188D02*
X600701Y107188D01*
X600800Y107190D01*
X600900Y107196D01*
X600999Y107205D01*
X601097Y107218D01*
X601195Y107235D01*
X601293Y107256D01*
X601389Y107281D01*
X601484Y107309D01*
X601578Y107341D01*
X601671Y107376D01*
X601763Y107415D01*
X601853Y107458D01*
X601941Y107503D01*
X602028Y107553D01*
X602112Y107605D01*
X602195Y107661D01*
X602275Y107719D01*
X602353Y107781D01*
X602428Y107846D01*
X602501Y107914D01*
X602571Y107984D01*
X602639Y108057D01*
X602704Y108132D01*
X602766Y108210D01*
X602824Y108290D01*
X602880Y108373D01*
X602932Y108457D01*
X602982Y108544D01*
X603027Y108632D01*
X603070Y108722D01*
X603109Y108814D01*
X603144Y108907D01*
X603176Y109001D01*
X603204Y109096D01*
X603229Y109192D01*
X603250Y109290D01*
X603267Y109388D01*
X603280Y109486D01*
X603289Y109585D01*
X603295Y109685D01*
X603297Y109784D01*
X603297Y116276D01*
X603295Y116375D01*
X603289Y116475D01*
X603280Y116574D01*
X603267Y116672D01*
X603250Y116770D01*
X603229Y116868D01*
X603204Y116964D01*
X603176Y117059D01*
X603144Y117153D01*
X603109Y117246D01*
X603070Y117338D01*
X603027Y117428D01*
X602982Y117516D01*
X602932Y117603D01*
X602880Y117687D01*
X602824Y117770D01*
X602766Y117850D01*
X602704Y117928D01*
X602639Y118003D01*
X602571Y118076D01*
X602501Y118146D01*
X602428Y118214D01*
X602353Y118279D01*
X602275Y118341D01*
X602195Y118399D01*
X602112Y118455D01*
X602028Y118507D01*
X601941Y118557D01*
X601853Y118602D01*
X601763Y118645D01*
X601671Y118684D01*
X601578Y118719D01*
X601484Y118751D01*
X601389Y118779D01*
X601293Y118804D01*
X601195Y118825D01*
X601097Y118842D01*
X600999Y118855D01*
X600900Y118864D01*
X600800Y118870D01*
X600701Y118872D01*
X598104Y118872D01*
X593739Y116276D02*
X590494Y118872D01*
X590494Y107188D01*
X593739Y107188D02*
X587248Y107188D01*
X657239Y107188D02*
X659836Y107188D01*
X659935Y107190D01*
X660035Y107196D01*
X660134Y107205D01*
X660232Y107218D01*
X660330Y107235D01*
X660428Y107256D01*
X660524Y107281D01*
X660619Y107309D01*
X660713Y107341D01*
X660806Y107376D01*
X660898Y107415D01*
X660988Y107458D01*
X661076Y107503D01*
X661163Y107553D01*
X661247Y107605D01*
X661330Y107661D01*
X661410Y107719D01*
X661488Y107781D01*
X661563Y107846D01*
X661636Y107914D01*
X661706Y107984D01*
X661774Y108057D01*
X661839Y108132D01*
X661901Y108210D01*
X661959Y108290D01*
X662015Y108373D01*
X662067Y108457D01*
X662117Y108544D01*
X662162Y108632D01*
X662205Y108722D01*
X662244Y108814D01*
X662279Y108907D01*
X662311Y109001D01*
X662339Y109096D01*
X662364Y109192D01*
X662385Y109290D01*
X662402Y109388D01*
X662415Y109486D01*
X662424Y109585D01*
X662430Y109685D01*
X662432Y109784D01*
X662432Y116276D01*
X662430Y116375D01*
X662424Y116475D01*
X662415Y116574D01*
X662402Y116672D01*
X662385Y116770D01*
X662364Y116868D01*
X662339Y116964D01*
X662311Y117059D01*
X662279Y117153D01*
X662244Y117246D01*
X662205Y117338D01*
X662162Y117428D01*
X662117Y117516D01*
X662067Y117603D01*
X662015Y117687D01*
X661959Y117770D01*
X661901Y117850D01*
X661839Y117928D01*
X661774Y118003D01*
X661706Y118076D01*
X661636Y118146D01*
X661563Y118214D01*
X661488Y118279D01*
X661410Y118341D01*
X661330Y118399D01*
X661247Y118455D01*
X661163Y118507D01*
X661076Y118557D01*
X660988Y118602D01*
X660898Y118645D01*
X660806Y118684D01*
X660713Y118719D01*
X660619Y118751D01*
X660524Y118779D01*
X660428Y118804D01*
X660330Y118825D01*
X660232Y118842D01*
X660134Y118855D01*
X660035Y118864D01*
X659935Y118870D01*
X659836Y118872D01*
X657239Y118872D01*
X649304Y118872D02*
X649197Y118870D01*
X649091Y118864D01*
X648985Y118854D01*
X648879Y118841D01*
X648773Y118823D01*
X648669Y118802D01*
X648565Y118777D01*
X648462Y118748D01*
X648361Y118716D01*
X648261Y118679D01*
X648162Y118639D01*
X648064Y118596D01*
X647968Y118549D01*
X647874Y118498D01*
X647782Y118444D01*
X647692Y118387D01*
X647604Y118327D01*
X647519Y118263D01*
X647436Y118196D01*
X647355Y118126D01*
X647277Y118054D01*
X647201Y117978D01*
X647129Y117900D01*
X647059Y117819D01*
X646992Y117736D01*
X646928Y117651D01*
X646868Y117563D01*
X646811Y117473D01*
X646757Y117381D01*
X646706Y117287D01*
X646659Y117191D01*
X646616Y117093D01*
X646576Y116994D01*
X646539Y116894D01*
X646507Y116793D01*
X646478Y116690D01*
X646453Y116586D01*
X646432Y116482D01*
X646414Y116376D01*
X646401Y116270D01*
X646391Y116164D01*
X646385Y116058D01*
X646383Y115951D01*
X649304Y118872D02*
X649425Y118870D01*
X649546Y118864D01*
X649666Y118854D01*
X649787Y118841D01*
X649906Y118823D01*
X650026Y118802D01*
X650144Y118777D01*
X650261Y118748D01*
X650378Y118715D01*
X650493Y118679D01*
X650607Y118638D01*
X650720Y118595D01*
X650832Y118547D01*
X650941Y118496D01*
X651049Y118441D01*
X651156Y118383D01*
X651260Y118322D01*
X651362Y118257D01*
X651462Y118189D01*
X651560Y118118D01*
X651656Y118044D01*
X651749Y117967D01*
X651839Y117886D01*
X651927Y117803D01*
X652012Y117717D01*
X652095Y117628D01*
X652174Y117537D01*
X652251Y117443D01*
X652324Y117347D01*
X652394Y117249D01*
X652461Y117148D01*
X652525Y117045D01*
X652586Y116940D01*
X652643Y116833D01*
X652696Y116725D01*
X652746Y116615D01*
X652792Y116503D01*
X652835Y116390D01*
X652874Y116275D01*
X647357Y113679D02*
X647278Y113757D01*
X647202Y113837D01*
X647129Y113920D01*
X647059Y114006D01*
X646992Y114093D01*
X646928Y114184D01*
X646868Y114276D01*
X646810Y114370D01*
X646756Y114467D01*
X646706Y114565D01*
X646659Y114665D01*
X646615Y114766D01*
X646575Y114869D01*
X646539Y114974D01*
X646507Y115079D01*
X646478Y115186D01*
X646453Y115293D01*
X646431Y115402D01*
X646414Y115511D01*
X646400Y115620D01*
X646391Y115730D01*
X646385Y115841D01*
X646383Y115951D01*
X647356Y113679D02*
X652874Y107188D01*
X646383Y107188D01*
D11*
X656590Y182880D02*
X694690Y182880D01*
X593090Y182880D02*
X554990Y182880D01*
D10*
X577155Y234188D02*
X577155Y245872D01*
X573910Y245872D01*
X573797Y245870D01*
X573684Y245864D01*
X573571Y245854D01*
X573458Y245840D01*
X573346Y245823D01*
X573235Y245801D01*
X573125Y245776D01*
X573015Y245746D01*
X572907Y245713D01*
X572800Y245676D01*
X572694Y245636D01*
X572590Y245591D01*
X572487Y245543D01*
X572386Y245492D01*
X572287Y245437D01*
X572190Y245379D01*
X572095Y245317D01*
X572002Y245252D01*
X571912Y245184D01*
X571824Y245113D01*
X571738Y245038D01*
X571655Y244961D01*
X571575Y244881D01*
X571498Y244798D01*
X571423Y244712D01*
X571352Y244624D01*
X571284Y244534D01*
X571219Y244441D01*
X571157Y244346D01*
X571099Y244249D01*
X571044Y244150D01*
X570993Y244049D01*
X570945Y243946D01*
X570900Y243842D01*
X570860Y243736D01*
X570823Y243629D01*
X570790Y243521D01*
X570760Y243411D01*
X570735Y243301D01*
X570713Y243190D01*
X570696Y243078D01*
X570682Y242965D01*
X570672Y242852D01*
X570666Y242739D01*
X570664Y242626D01*
X570666Y242513D01*
X570672Y242400D01*
X570682Y242287D01*
X570696Y242174D01*
X570713Y242062D01*
X570735Y241951D01*
X570760Y241841D01*
X570790Y241731D01*
X570823Y241623D01*
X570860Y241516D01*
X570900Y241410D01*
X570945Y241306D01*
X570993Y241203D01*
X571044Y241102D01*
X571099Y241003D01*
X571157Y240906D01*
X571219Y240811D01*
X571284Y240718D01*
X571352Y240628D01*
X571423Y240540D01*
X571498Y240454D01*
X571575Y240371D01*
X571655Y240291D01*
X571738Y240214D01*
X571824Y240139D01*
X571912Y240068D01*
X572002Y240000D01*
X572095Y239935D01*
X572190Y239873D01*
X572287Y239815D01*
X572386Y239760D01*
X572487Y239709D01*
X572590Y239661D01*
X572694Y239616D01*
X572800Y239576D01*
X572907Y239539D01*
X573015Y239506D01*
X573125Y239476D01*
X573235Y239451D01*
X573346Y239429D01*
X573458Y239412D01*
X573571Y239398D01*
X573684Y239388D01*
X573797Y239382D01*
X573910Y239380D01*
X573910Y239381D02*
X577155Y239381D01*
X573261Y239381D02*
X570664Y234188D01*
X565799Y243276D02*
X562554Y245872D01*
X562554Y234188D01*
X565799Y234188D02*
X559308Y234188D01*
X694182Y272288D02*
X694182Y283972D01*
X690936Y283972D01*
X690823Y283970D01*
X690710Y283964D01*
X690597Y283954D01*
X690484Y283940D01*
X690372Y283923D01*
X690261Y283901D01*
X690151Y283876D01*
X690041Y283846D01*
X689933Y283813D01*
X689826Y283776D01*
X689720Y283736D01*
X689616Y283691D01*
X689513Y283643D01*
X689412Y283592D01*
X689313Y283537D01*
X689216Y283479D01*
X689121Y283417D01*
X689028Y283352D01*
X688938Y283284D01*
X688850Y283213D01*
X688764Y283138D01*
X688681Y283061D01*
X688601Y282981D01*
X688524Y282898D01*
X688449Y282812D01*
X688378Y282724D01*
X688310Y282634D01*
X688245Y282541D01*
X688183Y282446D01*
X688125Y282349D01*
X688070Y282250D01*
X688019Y282149D01*
X687971Y282046D01*
X687926Y281942D01*
X687886Y281836D01*
X687849Y281729D01*
X687816Y281621D01*
X687786Y281511D01*
X687761Y281401D01*
X687739Y281290D01*
X687722Y281178D01*
X687708Y281065D01*
X687698Y280952D01*
X687692Y280839D01*
X687690Y280726D01*
X687692Y280613D01*
X687698Y280500D01*
X687708Y280387D01*
X687722Y280274D01*
X687739Y280162D01*
X687761Y280051D01*
X687786Y279941D01*
X687816Y279831D01*
X687849Y279723D01*
X687886Y279616D01*
X687926Y279510D01*
X687971Y279406D01*
X688019Y279303D01*
X688070Y279202D01*
X688125Y279103D01*
X688183Y279006D01*
X688245Y278911D01*
X688310Y278818D01*
X688378Y278728D01*
X688449Y278640D01*
X688524Y278554D01*
X688601Y278471D01*
X688681Y278391D01*
X688764Y278314D01*
X688850Y278239D01*
X688938Y278168D01*
X689028Y278100D01*
X689121Y278035D01*
X689216Y277973D01*
X689313Y277915D01*
X689412Y277860D01*
X689513Y277809D01*
X689616Y277761D01*
X689720Y277716D01*
X689826Y277676D01*
X689933Y277639D01*
X690041Y277606D01*
X690151Y277576D01*
X690261Y277551D01*
X690372Y277529D01*
X690484Y277512D01*
X690597Y277498D01*
X690710Y277488D01*
X690823Y277482D01*
X690936Y277480D01*
X690936Y277481D02*
X694182Y277481D01*
X690287Y277481D02*
X687691Y272288D01*
X676335Y281051D02*
X676337Y281158D01*
X676343Y281264D01*
X676353Y281370D01*
X676366Y281476D01*
X676384Y281582D01*
X676405Y281686D01*
X676430Y281790D01*
X676459Y281893D01*
X676491Y281994D01*
X676528Y282094D01*
X676568Y282193D01*
X676611Y282291D01*
X676658Y282387D01*
X676709Y282481D01*
X676763Y282573D01*
X676820Y282663D01*
X676880Y282751D01*
X676944Y282836D01*
X677011Y282919D01*
X677081Y283000D01*
X677153Y283078D01*
X677229Y283154D01*
X677307Y283226D01*
X677388Y283296D01*
X677471Y283363D01*
X677556Y283427D01*
X677644Y283487D01*
X677734Y283544D01*
X677826Y283598D01*
X677920Y283649D01*
X678016Y283696D01*
X678114Y283739D01*
X678213Y283779D01*
X678313Y283816D01*
X678414Y283848D01*
X678517Y283877D01*
X678621Y283902D01*
X678725Y283923D01*
X678831Y283941D01*
X678937Y283954D01*
X679043Y283964D01*
X679149Y283970D01*
X679256Y283972D01*
X679377Y283970D01*
X679498Y283964D01*
X679618Y283954D01*
X679739Y283941D01*
X679858Y283923D01*
X679978Y283902D01*
X680096Y283877D01*
X680213Y283848D01*
X680330Y283815D01*
X680445Y283779D01*
X680559Y283738D01*
X680672Y283695D01*
X680784Y283647D01*
X680893Y283596D01*
X681001Y283541D01*
X681108Y283483D01*
X681212Y283422D01*
X681314Y283357D01*
X681414Y283289D01*
X681512Y283218D01*
X681608Y283144D01*
X681701Y283067D01*
X681791Y282986D01*
X681879Y282903D01*
X681964Y282817D01*
X682047Y282728D01*
X682126Y282637D01*
X682203Y282543D01*
X682276Y282447D01*
X682346Y282349D01*
X682413Y282248D01*
X682477Y282145D01*
X682538Y282040D01*
X682595Y281933D01*
X682648Y281825D01*
X682698Y281715D01*
X682744Y281603D01*
X682787Y281490D01*
X682826Y281375D01*
X677309Y278779D02*
X677230Y278857D01*
X677154Y278937D01*
X677081Y279020D01*
X677011Y279106D01*
X676944Y279193D01*
X676880Y279284D01*
X676820Y279376D01*
X676762Y279470D01*
X676708Y279567D01*
X676658Y279665D01*
X676611Y279765D01*
X676567Y279866D01*
X676527Y279969D01*
X676491Y280074D01*
X676459Y280179D01*
X676430Y280286D01*
X676405Y280393D01*
X676383Y280502D01*
X676366Y280611D01*
X676352Y280720D01*
X676343Y280830D01*
X676337Y280941D01*
X676335Y281051D01*
X677308Y278779D02*
X682826Y272288D01*
X676335Y272288D01*
M02*
