G04 EAGLE Gerber RS-274X export*
G75*
%MOMM*%
%FSLAX34Y34*%
%LPD*%
%INSoldermask Bottom*%
%IPPOS*%
%AMOC8*
5,1,8,0,0,1.08239X$1,22.5*%
G01*
%ADD10C,1.727200*%
%ADD11C,1.879600*%
%ADD12R,1.503200X1.703200*%
%ADD13C,2.082800*%
%ADD14C,5.003200*%
%ADD15C,1.711200*%
%ADD16C,2.003200*%
%ADD17C,1.703200*%
%ADD18C,1.993900*%


D10*
X599440Y48260D02*
X599440Y63500D01*
X624840Y63500D02*
X624840Y48260D01*
X650240Y48260D02*
X650240Y63500D01*
D11*
X353822Y678180D02*
X337058Y678180D01*
X337058Y652780D02*
X353822Y652780D01*
X353822Y627380D02*
X337058Y627380D01*
X337058Y601980D02*
X353822Y601980D01*
X353822Y576580D02*
X337058Y576580D01*
X337058Y551180D02*
X353822Y551180D01*
X353822Y525780D02*
X337058Y525780D01*
X337058Y500380D02*
X353822Y500380D01*
X226822Y678180D02*
X210058Y678180D01*
X210058Y652780D02*
X226822Y652780D01*
X226822Y627380D02*
X210058Y627380D01*
X210058Y601980D02*
X226822Y601980D01*
X226822Y576580D02*
X210058Y576580D01*
X210058Y551180D02*
X226822Y551180D01*
X226822Y525780D02*
X210058Y525780D01*
X210058Y500380D02*
X226822Y500380D01*
X337058Y449580D02*
X353822Y449580D01*
X353822Y424180D02*
X337058Y424180D01*
X337058Y398780D02*
X353822Y398780D01*
X353822Y373380D02*
X337058Y373380D01*
X337058Y347980D02*
X353822Y347980D01*
X353822Y322580D02*
X337058Y322580D01*
X337058Y297180D02*
X353822Y297180D01*
X353822Y271780D02*
X337058Y271780D01*
X226822Y449580D02*
X210058Y449580D01*
X210058Y424180D02*
X226822Y424180D01*
X226822Y398780D02*
X210058Y398780D01*
X210058Y373380D02*
X226822Y373380D01*
X226822Y347980D02*
X210058Y347980D01*
X210058Y322580D02*
X226822Y322580D01*
X226822Y297180D02*
X210058Y297180D01*
X210058Y271780D02*
X226822Y271780D01*
X337058Y220980D02*
X353822Y220980D01*
X353822Y195580D02*
X337058Y195580D01*
X337058Y170180D02*
X353822Y170180D01*
X353822Y144780D02*
X337058Y144780D01*
X337058Y119380D02*
X353822Y119380D01*
X353822Y93980D02*
X337058Y93980D01*
X337058Y68580D02*
X353822Y68580D01*
X353822Y43180D02*
X337058Y43180D01*
X226822Y220980D02*
X210058Y220980D01*
X210058Y195580D02*
X226822Y195580D01*
X226822Y170180D02*
X210058Y170180D01*
X210058Y144780D02*
X226822Y144780D01*
X226822Y119380D02*
X210058Y119380D01*
X210058Y93980D02*
X226822Y93980D01*
X226822Y68580D02*
X210058Y68580D01*
X210058Y43180D02*
X226822Y43180D01*
D12*
X589940Y93980D03*
X608940Y93980D03*
X659740Y93980D03*
X640740Y93980D03*
D13*
X675640Y220980D03*
X675640Y195580D03*
X574040Y220980D03*
X574040Y195580D03*
D10*
X599440Y152400D02*
X599440Y137160D01*
X624840Y137160D02*
X624840Y152400D01*
X650240Y152400D02*
X650240Y137160D01*
X396240Y353060D02*
X396240Y368300D01*
X421640Y368300D02*
X421640Y353060D01*
X415290Y196850D02*
X400050Y196850D01*
X400050Y171450D02*
X415290Y171450D01*
X396240Y101600D02*
X396240Y86360D01*
X421640Y86360D02*
X421640Y101600D01*
X396240Y67310D02*
X396240Y52070D01*
X421640Y52070D02*
X421640Y67310D01*
X416560Y426720D02*
X401320Y426720D01*
X401320Y401320D02*
X416560Y401320D01*
X396240Y330200D02*
X396240Y314960D01*
X421640Y314960D02*
X421640Y330200D01*
X416560Y665480D02*
X401320Y665480D01*
X401320Y640080D02*
X416560Y640080D01*
X396240Y600710D02*
X396240Y585470D01*
X421640Y585470D02*
X421640Y600710D01*
X396240Y562610D02*
X396240Y547370D01*
X421640Y547370D02*
X421640Y562610D01*
X396240Y292100D02*
X396240Y276860D01*
X421640Y276860D02*
X421640Y292100D01*
X396240Y509270D02*
X396240Y524510D01*
X421640Y524510D02*
X421640Y509270D01*
X396240Y140970D02*
X396240Y125730D01*
X421640Y125730D02*
X421640Y140970D01*
X781050Y353060D02*
X781050Y368300D01*
X806450Y368300D02*
X806450Y353060D01*
X781050Y391160D02*
X781050Y406400D01*
X806450Y406400D02*
X806450Y391160D01*
X781050Y429260D02*
X781050Y444500D01*
X806450Y444500D02*
X806450Y429260D01*
X149860Y322580D02*
X134620Y322580D01*
X134620Y347980D02*
X149860Y347980D01*
X149860Y373380D02*
X134620Y373380D01*
X134620Y398780D02*
X149860Y398780D01*
X149860Y551180D02*
X134620Y551180D01*
X134620Y576580D02*
X149860Y576580D01*
X149860Y601980D02*
X134620Y601980D01*
X134620Y627380D02*
X149860Y627380D01*
X149860Y93980D02*
X134620Y93980D01*
X134620Y119380D02*
X149860Y119380D01*
X149860Y144780D02*
X134620Y144780D01*
X134620Y170180D02*
X149860Y170180D01*
D12*
X555650Y259080D03*
X574650Y259080D03*
X697840Y259080D03*
X678840Y259080D03*
D10*
X759460Y480060D02*
X774700Y480060D01*
X774700Y505460D02*
X759460Y505460D01*
X759460Y530860D02*
X774700Y530860D01*
X796290Y480060D02*
X811530Y480060D01*
X811530Y505460D02*
X796290Y505460D01*
X796290Y530860D02*
X811530Y530860D01*
D14*
X76870Y705840D03*
X106870Y752840D03*
X47870Y752840D03*
D15*
X548640Y779780D03*
X548640Y754380D03*
X548640Y627380D03*
X548640Y601980D03*
X548640Y728980D03*
X548640Y703580D03*
X548640Y652780D03*
X548640Y678180D03*
X548640Y576580D03*
X548640Y551180D03*
X548640Y525780D03*
X548640Y500380D03*
X548640Y474980D03*
X548640Y449580D03*
X548640Y424180D03*
X548640Y398780D03*
X548640Y373380D03*
X548640Y347980D03*
X548640Y322580D03*
X548640Y297180D03*
X726440Y297180D03*
X726440Y322580D03*
X726440Y347980D03*
X726440Y373380D03*
X726440Y398780D03*
X726440Y424180D03*
X726440Y449580D03*
X726440Y474980D03*
X726440Y500380D03*
X726440Y525780D03*
X726440Y551180D03*
X726440Y576580D03*
X726440Y601980D03*
X726440Y627380D03*
X726440Y652780D03*
X726440Y678180D03*
X726440Y703580D03*
X726440Y728980D03*
X726440Y754380D03*
X726440Y779780D03*
D16*
X610290Y778480D03*
X664790Y778480D03*
D17*
X613290Y748180D03*
X661790Y748180D03*
D15*
X612140Y299480D03*
X637540Y299480D03*
X662940Y299480D03*
D10*
X506730Y584200D02*
X491490Y584200D01*
X491490Y609600D02*
X506730Y609600D01*
X506730Y635000D02*
X491490Y635000D01*
X491490Y660400D02*
X506730Y660400D01*
D18*
X49594Y638880D02*
X31687Y638880D01*
X31687Y588880D02*
X49594Y588880D01*
X49594Y538880D02*
X31687Y538880D01*
X31687Y488880D02*
X49594Y488880D01*
X49594Y435680D02*
X31687Y435680D01*
X31687Y385680D02*
X49594Y385680D01*
X49594Y335680D02*
X31687Y335680D01*
X31687Y285680D02*
X49594Y285680D01*
X331070Y753047D02*
X331070Y770954D01*
X281070Y770954D02*
X281070Y753047D01*
X49594Y232480D02*
X31687Y232480D01*
X31687Y182480D02*
X49594Y182480D01*
X49594Y132480D02*
X31687Y132480D01*
X31687Y82480D02*
X49594Y82480D01*
D17*
X176530Y654050D03*
X180340Y436880D03*
X180340Y208280D03*
X447040Y563880D03*
X447040Y386080D03*
X447040Y144780D03*
X759460Y688340D03*
X567690Y60960D03*
X499110Y688340D03*
M02*
