M48
;GenerationSoftware,Autodesk,EAGLE,9.5.1*%
;CreationDate,2021-05-15T10:18:15Z*%
FMAT,2
ICI,OFF
METRIC,TZ,000.000
T7C0.813
T6C1.000
T5C1.016
T4C1.194
T3C1.500
T2C1.800
T1C3.000
%
G90
M71
T1
X7687Y70584
X10687Y75284
X4787Y75284
T2
X61029Y77848
X66479Y77848
T3
X61329Y74818
X66179Y74818
T4
X4064Y48888
X4064Y8248
X4064Y63888
X4064Y58888
X4064Y53888
X4064Y43568
X4064Y38568
X4064Y33568
X4064Y28568
X33107Y76200
X28107Y76200
X4064Y23248
X4064Y18248
X4064Y13248
T5
X42164Y9398
X39624Y51689
X39624Y5969
X42164Y5969
X40894Y42672
X40894Y40132
X39624Y32258
X42164Y32258
X40894Y66548
X40894Y64008
X39624Y59309
X42164Y59309
X39624Y55499
X42164Y55499
X80645Y36068
X78105Y39878
X80645Y39878
X78105Y43688
X39624Y28448
X14224Y32258
X14224Y34798
X14224Y37338
X14224Y39878
X14224Y55118
X14224Y57658
X14224Y60198
X14224Y62738
X14224Y9398
X14224Y11938
X14224Y14478
X14224Y17018
X76708Y48006
X76708Y50546
X76708Y53086
X80391Y48006
X80391Y50546
X80391Y53086
X42164Y28448
X78105Y36068
X42164Y13335
X39624Y13335
X49911Y58420
X49911Y60960
X49911Y63500
X49911Y66040
X42164Y51689
X59944Y14478
X62484Y14478
X80645Y43688
X65024Y14478
X59944Y5588
X62484Y5588
X65024Y5588
X39624Y36068
X42164Y36068
X40767Y19685
X40767Y17145
X39624Y9398
T6
X34544Y11938
X34544Y9398
X34544Y6858
X34544Y4318
X21844Y22098
X21844Y19558
X21844Y17018
X21844Y14478
X21844Y11938
X21844Y9398
X21844Y6858
X21844Y4318
X34544Y52578
X17653Y65405
X18034Y43688
X18034Y20828
X44704Y56388
X44704Y38608
X44704Y14478
X75946Y68834
X56769Y6096
X49911Y68834
X34544Y67818
X34544Y65278
X34544Y62738
X34544Y60198
X34544Y57658
X34544Y55118
X34544Y50038
X21844Y67818
X21844Y65278
X21844Y62738
X21844Y60198
X21844Y57658
X21844Y55118
X21844Y52578
X21844Y50038
X34544Y44958
X34544Y42418
X54864Y77978
X54864Y75438
X54864Y62738
X54864Y60198
X54864Y72898
X54864Y70358
X54864Y65278
X54864Y67818
X54864Y57658
X54864Y55118
X54864Y52578
X54864Y50038
X54864Y47498
X54864Y44958
X54864Y42418
X54864Y39878
X34544Y39878
X54864Y34798
X54864Y32258
X54864Y29718
X72644Y29718
X72644Y32258
X72644Y34798
X72644Y37338
X72644Y39878
X72644Y42418
X72644Y44958
X72644Y47498
X72644Y50038
X72644Y52578
X72644Y55118
X72644Y57658
X72644Y60198
X72644Y62738
X72644Y65278
X72644Y67818
X72644Y70358
X72644Y72898
X54864Y37338
X72644Y77978
X61214Y29948
X63754Y29948
X66294Y29948
X34544Y37338
X34544Y34798
X34544Y32258
X34544Y29718
X34544Y27178
X21844Y44958
X21844Y42418
X21844Y39878
X21844Y37338
X21844Y34798
X21844Y32258
X21844Y29718
X21844Y27178
X34544Y22098
X34544Y19558
X34544Y17018
X34544Y14478
X72644Y75438
T7
X67564Y22098
X57404Y19558
X57404Y22098
X67564Y19558
M30